<svg version="1.1" id="Layer_1" xmlns="http://www.w3.org/2000/svg" xmlns:xlink="http://www.w3.org/1999/xlink" x="0px" y="0px"
	 width="100%" viewBox="0 0 986 348" enable-background="new 0 0 986 348" xml:space="preserve">
<path fill="none" opacity="1.000000" stroke="none" 
	d="
M690.000000,349.000000 
	C460.000031,349.000000 230.500076,349.000000 1.000092,349.000000 
	C1.000062,233.000061 1.000062,117.000122 1.000031,1.000139 
	C329.666534,1.000093 658.333069,1.000093 986.999756,1.000046 
	C986.999817,116.999855 986.999817,232.999710 986.999878,348.999786 
	C888.166687,349.000000 789.333313,349.000000 690.000000,349.000000 
M611.607239,143.969925 
	C619.550415,136.671860 627.531738,129.414368 635.397156,122.033554 
	C636.628601,120.877998 638.101501,119.188927 638.154053,117.700340 
	C638.429199,109.909416 638.282593,102.103584 638.282593,94.338089 
	C628.751221,94.338089 619.669373,94.338089 610.134399,94.338089 
	C610.134399,104.367348 610.134399,114.104836 610.134399,124.337433 
	C604.950317,124.337433 600.209961,124.337433 595.392090,124.337433 
	C595.392090,131.248016 595.392090,137.649780 595.392090,144.224472 
	C600.596008,144.467209 605.541931,144.697906 610.252747,145.847778 
	C610.243530,167.323669 610.156006,188.799911 610.253967,210.275314 
	C610.314453,223.538239 615.965515,230.584091 628.737366,231.853622 
	C637.596436,232.734192 646.613708,232.023010 655.955261,232.023010 
	C655.955261,228.461182 655.955261,224.997879 655.955261,221.534592 
	C655.955261,218.120255 655.955261,214.705933 655.955261,211.239975 
	C653.726990,211.239975 652.238403,211.238174 650.749817,211.240280 
	C638.877563,211.257004 638.275085,210.677948 638.266296,198.978455 
	C638.254028,182.663345 638.262756,166.348251 638.262512,150.033142 
	C638.262512,148.266129 638.262512,146.499130 638.262512,144.781693 
	C628.973755,144.781693 620.340515,144.781693 611.607239,143.969925 
M888.000977,185.500000 
	C888.000793,176.669571 888.439880,167.809616 887.848755,159.018906 
	C887.442444,152.976654 886.735046,146.499954 884.212402,141.134155 
	C873.826599,119.043343 842.200073,115.318634 826.352905,133.914276 
	C825.019592,135.478806 823.769287,137.114120 822.408020,138.806488 
	C809.773254,115.740799 774.827332,116.769112 762.052063,140.255112 
	C762.052063,134.751297 762.052063,130.041290 762.052063,125.234749 
	C752.882568,125.234749 744.161682,125.234749 735.331482,125.234749 
	C735.331482,160.595062 735.331482,195.672028 735.331482,230.989441 
	C744.620605,230.989441 753.682434,230.989441 762.674988,230.989441 
	C762.881653,230.480789 763.103333,230.189270 763.103882,229.897369 
	C763.137329,210.071198 763.122131,190.244873 763.200439,170.418915 
	C763.213562,167.102158 763.390991,163.750641 763.897339,160.477814 
	C765.480347,150.245209 771.345825,145.584503 781.856812,145.944275 
	C791.809387,146.284943 796.391846,150.930649 797.266968,161.703644 
	C797.495911,164.521606 797.544556,167.360199 797.548157,170.189484 
	C797.572083,188.683365 797.560852,207.177292 797.561096,225.671204 
	C797.561096,227.427322 797.561035,229.183441 797.561035,230.839737 
	C807.297424,230.839737 816.351562,230.839737 825.690002,230.839737 
	C825.690002,228.813110 825.690002,227.166061 825.690002,225.519012 
	C825.690369,207.025101 825.569275,188.529831 825.777039,170.038239 
	C825.828674,165.446075 826.291687,160.651031 827.714539,156.327393 
	C830.242920,148.645020 837.435852,145.081741 846.660278,145.976593 
	C853.150635,146.606201 857.645813,151.184158 859.017944,159.003922 
	C859.618164,162.424835 859.889038,165.943985 859.904358,169.420334 
	C859.987549,188.247101 859.943909,207.074448 859.944031,225.901581 
	C859.944031,227.644241 859.943970,229.386902 859.943970,231.040802 
	C869.646912,231.040802 878.598816,231.040802 888.000977,231.040802 
	C888.000977,216.070526 888.000977,201.285263 888.000977,185.500000 
M462.054535,137.479630 
	C452.640228,125.608810 439.769196,121.254189 425.221344,120.461067 
	C404.244568,119.317451 385.641022,129.461334 377.602722,147.759613 
	C369.208069,166.869019 368.867920,186.821854 376.497986,206.125900 
	C383.631317,224.173203 399.030518,232.377945 417.464050,234.409485 
	C438.506683,236.728592 456.373505,230.495544 468.136902,211.680084 
	C470.302032,208.216919 471.426270,204.102936 473.350250,199.530533 
	C463.915466,199.530533 455.930573,199.623398 447.949921,199.479462 
	C445.207825,199.429993 443.768250,200.495163 441.863708,202.541138 
	C438.715363,205.923141 434.876038,209.584900 430.642181,210.870529 
	C413.988556,215.927353 400.391022,204.267426 400.185638,185.003799 
	C412.481812,185.003799 424.778961,185.003799 437.076080,185.003799 
	C449.341339,185.003799 461.606567,185.003799 473.909821,185.003799 
	C474.727020,167.806808 473.213715,151.791321 462.054535,137.479630 
M504.902924,128.341080 
	C498.915009,132.837250 494.084991,138.292007 491.805054,145.533157 
	C487.548248,159.052567 488.780731,174.801010 507.196716,181.996063 
	C511.981720,183.865524 516.864929,185.533096 521.799377,186.960114 
	C531.049988,189.635345 540.383911,192.021057 549.656921,194.621002 
	C553.894348,195.809067 556.754456,198.471924 556.770630,203.114075 
	C556.788025,208.114456 553.346619,210.578293 549.096680,211.724182 
	C541.224915,213.846603 533.338257,213.581909 525.462341,211.290405 
	C518.234131,209.187363 516.256531,203.337677 515.029907,196.824051 
	C510.044006,196.824051 505.388733,196.824051 500.733459,196.824051 
	C496.116882,196.824051 491.500305,196.824051 486.906372,196.824051 
	C486.535065,212.767227 495.604950,225.773132 510.813324,231.073273 
	C525.008972,236.020432 539.660461,236.420685 554.149658,233.106903 
	C560.615417,231.628113 567.192871,228.844330 572.651978,225.097229 
	C588.313599,214.347092 592.946350,183.412018 567.723145,172.111832 
	C563.196716,170.083939 558.482605,168.360809 553.707336,167.026184 
	C543.954163,164.300293 534.080688,162.008011 524.298340,159.382233 
	C520.617371,158.394211 518.162781,155.978485 518.065430,151.917725 
	C517.969604,147.919159 520.335449,145.478729 523.703430,143.839798 
	C536.350464,137.685455 549.818420,142.981491 554.737976,156.219193 
	C559.138733,156.219193 563.624146,156.219193 568.109558,156.219193 
	C572.726746,156.219193 577.343872,156.219193 581.958679,156.219193 
	C581.812378,144.542709 576.717468,133.261398 567.882141,128.530609 
	C547.368225,117.546692 526.411804,116.506844 504.902924,128.341080 
M171.001678,223.456055 
	C171.002060,206.630081 170.845703,189.801758 171.100128,172.979614 
	C171.174667,168.050888 171.789520,162.943863 173.252747,158.261017 
	C176.397690,148.195892 185.665619,142.959015 196.406250,144.400513 
	C206.528107,145.758972 210.991394,151.191345 211.747726,163.143478 
	C211.863297,164.969772 211.825302,166.806992 211.825760,168.639160 
	C211.830658,187.797485 211.828934,206.955795 211.829041,226.114120 
	C211.829041,227.718552 211.829041,229.322968 211.829041,230.868378 
	C221.787598,230.868378 231.169846,230.868378 240.651108,230.868378 
	C240.651108,205.046585 240.833374,179.582596 240.542664,154.123993 
	C240.452682,146.243103 238.262283,138.706924 232.966034,132.382919 
	C221.256668,118.401321 187.091980,114.716721 173.900421,133.986633 
	C172.953903,135.369263 171.787903,136.601639 169.864227,138.956146 
	C169.864227,132.934525 169.864227,128.371353 169.864227,123.807800 
	C160.674225,123.807800 151.918442,123.807800 143.116287,123.807800 
	C143.116287,159.679306 143.116287,195.263733 143.116287,231.023193 
	C152.433624,231.023193 161.504791,231.023193 171.001678,231.023193 
	C171.001678,228.697968 171.001678,226.571762 171.001678,223.456055 
M272.498108,123.221886 
	C267.368591,123.221886 262.239044,123.221886 256.832855,123.221886 
	C256.971069,124.403778 256.914917,125.252419 257.178406,125.986305 
	C269.465912,160.209396 281.753418,194.432663 294.209076,228.594604 
	C294.645538,229.791656 296.763855,231.070053 298.137604,231.115265 
	C305.625519,231.361633 313.134857,231.015610 320.617676,231.329880 
	C324.094391,231.475906 325.496704,230.268463 326.624268,227.090973 
	C335.008667,203.463501 343.597198,179.908493 352.116028,156.328705 
	C356.051514,145.435486 359.974457,134.537735 364.054596,123.221771 
	C354.808807,123.221771 346.166840,123.371796 337.534973,123.142624 
	C334.397980,123.059341 333.272522,124.173637 332.483826,127.094223 
	C329.453125,138.316895 326.143341,149.464706 322.894318,160.627823 
	C318.908478,174.322449 314.879211,188.004425 310.572723,202.702087 
	C302.837708,175.511124 295.402863,149.375366 287.962982,123.221893 
	C282.811951,123.221893 278.152374,123.221893 272.498108,123.221886 
M703.140747,151.500046 
	C703.140747,142.223053 703.140747,132.946045 703.140747,123.479355 
	C693.412659,123.479355 684.189514,123.479355 674.726929,123.479355 
	C674.726929,159.440933 674.726929,195.139404 674.726929,231.040970 
	C684.258545,231.040970 693.523865,231.040970 703.140747,231.040970 
	C703.140747,204.743591 703.140747,178.621826 703.140747,151.500046 
M115.301331,156.500137 
	C115.301331,141.103439 115.301331,125.706757 115.301331,109.234108 
	C106.498512,117.043221 98.656616,124.173622 90.597618,131.049545 
	C87.977348,133.285156 86.893326,135.559540 86.912231,139.080490 
	C87.067924,168.078293 87.000198,197.077316 87.000206,226.075958 
	C87.000206,227.693390 87.000206,229.310837 87.000206,230.853668 
	C96.731544,230.853668 105.949951,230.853668 115.301353,230.853668 
	C115.301353,206.154495 115.301353,181.827316 115.301331,156.500137 
M119.751984,63.126373 
	C118.339760,63.232765 116.927544,63.339161 115.598328,63.439301 
	C115.598328,78.590981 115.598328,93.257057 115.598328,108.884521 
	C125.129898,100.404907 134.013687,92.513222 142.869171,84.589882 
	C143.324432,84.182549 143.814499,83.506683 143.820068,82.951118 
	C143.885941,76.395775 143.862427,69.839523 143.862427,63.126366 
	C135.633484,63.126366 128.168701,63.126366 119.751984,63.126373 
M687.508362,108.971031 
	C692.604980,108.971031 697.701538,108.971031 702.900330,108.971031 
	C702.900330,100.185501 702.900330,92.118462 702.900330,83.971375 
	C693.410095,83.971375 684.162842,83.971375 674.458862,83.971375 
	C674.458862,88.305275 674.458862,92.417313 674.458862,96.529343 
	C674.458862,100.625534 674.458862,104.721718 674.458862,108.979156 
	C678.890320,108.979156 682.703125,108.979156 687.508362,108.971031 
z"/>
<path fill="#1C1B1B" opacity="1.000000" stroke="none" 
	d="
M888.000977,186.000000 
	C888.000977,201.285263 888.000977,216.070526 888.000977,231.040802 
	C878.598816,231.040802 869.646912,231.040802 859.943970,231.040802 
	C859.943970,229.386902 859.944031,227.644241 859.944031,225.901581 
	C859.943909,207.074448 859.987549,188.247101 859.904358,169.420334 
	C859.889038,165.943985 859.618164,162.424835 859.017944,159.003922 
	C857.645813,151.184158 853.150635,146.606201 846.660278,145.976593 
	C837.435852,145.081741 830.242920,148.645020 827.714539,156.327393 
	C826.291687,160.651031 825.828674,165.446075 825.777039,170.038239 
	C825.569275,188.529831 825.690369,207.025101 825.690002,225.519012 
	C825.690002,227.166061 825.690002,228.813110 825.690002,230.839737 
	C816.351562,230.839737 807.297424,230.839737 797.561035,230.839737 
	C797.561035,229.183441 797.561096,227.427322 797.561096,225.671204 
	C797.560852,207.177292 797.572083,188.683365 797.548157,170.189484 
	C797.544556,167.360199 797.495911,164.521606 797.266968,161.703644 
	C796.391846,150.930649 791.809387,146.284943 781.856812,145.944275 
	C771.345825,145.584503 765.480347,150.245209 763.897339,160.477814 
	C763.390991,163.750641 763.213562,167.102158 763.200439,170.418915 
	C763.122131,190.244873 763.137329,210.071198 763.103882,229.897369 
	C763.103333,230.189270 762.881653,230.480789 762.674988,230.989441 
	C753.682434,230.989441 744.620605,230.989441 735.331482,230.989441 
	C735.331482,195.672028 735.331482,160.595062 735.331482,125.234749 
	C744.161682,125.234749 752.882568,125.234749 762.052063,125.234749 
	C762.052063,130.041290 762.052063,134.751297 762.052063,140.255112 
	C774.827332,116.769112 809.773254,115.740799 822.408020,138.806488 
	C823.769287,137.114120 825.019592,135.478806 826.352905,133.914276 
	C842.200073,115.318634 873.826599,119.043343 884.212402,141.134155 
	C886.735046,146.499954 887.442444,152.976654 887.848755,159.018906 
	C888.439880,167.809616 888.000793,176.669571 888.000977,186.000000 
z"/>
<path fill="#1C1B1B" opacity="1.000000" stroke="none" 
	d="
M462.283264,137.752045 
	C473.213715,151.791321 474.727020,167.806808 473.909821,185.003799 
	C461.606567,185.003799 449.341339,185.003799 437.076080,185.003799 
	C424.778961,185.003799 412.481812,185.003799 400.185638,185.003799 
	C400.391022,204.267426 413.988556,215.927353 430.642181,210.870529 
	C434.876038,209.584900 438.715363,205.923141 441.863708,202.541138 
	C443.768250,200.495163 445.207825,199.429993 447.949921,199.479462 
	C455.930573,199.623398 463.915466,199.530533 473.350250,199.530533 
	C471.426270,204.102936 470.302032,208.216919 468.136902,211.680084 
	C456.373505,230.495544 438.506683,236.728592 417.464050,234.409485 
	C399.030518,232.377945 383.631317,224.173203 376.497986,206.125900 
	C368.867920,186.821854 369.208069,166.869019 377.602722,147.759613 
	C385.641022,129.461334 404.244568,119.317451 425.221344,120.461067 
	C439.769196,121.254189 452.640228,125.608810 462.283264,137.752045 
M429.399963,144.755539 
	C414.728973,140.846817 402.159332,148.787460 401.302094,166.396149 
	C415.659760,166.396149 430.012634,166.396149 444.683319,166.396149 
	C443.800507,156.240814 440.108795,148.512375 429.399963,144.755539 
z"/>
<path fill="#1C1B1B" opacity="1.000000" stroke="none" 
	d="
M505.210754,128.149490 
	C526.411804,116.506844 547.368225,117.546692 567.882141,128.530609 
	C576.717468,133.261398 581.812378,144.542709 581.958679,156.219193 
	C577.343872,156.219193 572.726746,156.219193 568.109558,156.219193 
	C563.624146,156.219193 559.138733,156.219193 554.737976,156.219193 
	C549.818420,142.981491 536.350464,137.685455 523.703430,143.839798 
	C520.335449,145.478729 517.969604,147.919159 518.065430,151.917725 
	C518.162781,155.978485 520.617371,158.394211 524.298340,159.382233 
	C534.080688,162.008011 543.954163,164.300293 553.707336,167.026184 
	C558.482605,168.360809 563.196716,170.083939 567.723145,172.111832 
	C592.946350,183.412018 588.313599,214.347092 572.651978,225.097229 
	C567.192871,228.844330 560.615417,231.628113 554.149658,233.106903 
	C539.660461,236.420685 525.008972,236.020432 510.813324,231.073273 
	C495.604950,225.773132 486.535065,212.767227 486.906372,196.824051 
	C491.500305,196.824051 496.116882,196.824051 500.733459,196.824051 
	C505.388733,196.824051 510.044006,196.824051 515.029907,196.824051 
	C516.256531,203.337677 518.234131,209.187363 525.462341,211.290405 
	C533.338257,213.581909 541.224915,213.846603 549.096680,211.724182 
	C553.346619,210.578293 556.788025,208.114456 556.770630,203.114075 
	C556.754456,198.471924 553.894348,195.809067 549.656921,194.621002 
	C540.383911,192.021057 531.049988,189.635345 521.799377,186.960114 
	C516.864929,185.533096 511.981720,183.865524 507.196716,181.996063 
	C488.780731,174.801010 487.548248,159.052567 491.805054,145.533157 
	C494.084991,138.292007 498.915009,132.837250 505.210754,128.149490 
z"/>
<path fill="#1B1A1A" opacity="1.000000" stroke="none" 
	d="
M171.001678,223.950806 
	C171.001678,226.571762 171.001678,228.697968 171.001678,231.023193 
	C161.504791,231.023193 152.433624,231.023193 143.116287,231.023193 
	C143.116287,195.263733 143.116287,159.679306 143.116287,123.807800 
	C151.918442,123.807800 160.674225,123.807800 169.864227,123.807800 
	C169.864227,128.371353 169.864227,132.934525 169.864227,138.956146 
	C171.787903,136.601639 172.953903,135.369263 173.900421,133.986633 
	C187.091980,114.716721 221.256668,118.401321 232.966034,132.382919 
	C238.262283,138.706924 240.452682,146.243103 240.542664,154.123993 
	C240.833374,179.582596 240.651108,205.046585 240.651108,230.868378 
	C231.169846,230.868378 221.787598,230.868378 211.829041,230.868378 
	C211.829041,229.322968 211.829041,227.718552 211.829041,226.114120 
	C211.828934,206.955795 211.830658,187.797485 211.825760,168.639160 
	C211.825302,166.806992 211.863297,164.969772 211.747726,163.143478 
	C210.991394,151.191345 206.528107,145.758972 196.406250,144.400513 
	C185.665619,142.959015 176.397690,148.195892 173.252747,158.261017 
	C171.789520,162.943863 171.174667,168.050888 171.100128,172.979614 
	C170.845703,189.801758 171.002060,206.630081 171.001678,223.950806 
z"/>
<path fill="#1D1C1C" opacity="1.000000" stroke="none" 
	d="
M272.995453,123.221893 
	C278.152374,123.221893 282.811951,123.221893 287.962982,123.221893 
	C295.402863,149.375366 302.837708,175.511124 310.572723,202.702087 
	C314.879211,188.004425 318.908478,174.322449 322.894318,160.627823 
	C326.143341,149.464706 329.453125,138.316895 332.483826,127.094223 
	C333.272522,124.173637 334.397980,123.059341 337.534973,123.142624 
	C346.166840,123.371796 354.808807,123.221771 364.054596,123.221771 
	C359.974457,134.537735 356.051514,145.435486 352.116028,156.328705 
	C343.597198,179.908493 335.008667,203.463501 326.624268,227.090973 
	C325.496704,230.268463 324.094391,231.475906 320.617676,231.329880 
	C313.134857,231.015610 305.625519,231.361633 298.137604,231.115265 
	C296.763855,231.070053 294.645538,229.791656 294.209076,228.594604 
	C281.753418,194.432663 269.465912,160.209396 257.178406,125.986305 
	C256.914917,125.252419 256.971069,124.403778 256.832855,123.221886 
	C262.239044,123.221886 267.368591,123.221886 272.995453,123.221893 
z"/>
<path fill="#1F1E1E" opacity="1.000000" stroke="none" 
	d="
M703.140747,152.000061 
	C703.140747,178.621826 703.140747,204.743591 703.140747,231.040970 
	C693.523865,231.040970 684.258545,231.040970 674.726929,231.040970 
	C674.726929,195.139404 674.726929,159.440933 674.726929,123.479355 
	C684.189514,123.479355 693.412659,123.479355 703.140747,123.479355 
	C703.140747,132.946045 703.140747,142.223053 703.140747,152.000061 
z"/>
<path fill="#1A1919" opacity="1.000000" stroke="none" 
	d="
M115.301346,157.000153 
	C115.301353,181.827316 115.301353,206.154495 115.301353,230.853668 
	C105.949951,230.853668 96.731544,230.853668 87.000206,230.853668 
	C87.000206,229.310837 87.000206,227.693390 87.000206,226.075958 
	C87.000198,197.077316 87.067924,168.078293 86.912231,139.080490 
	C86.893326,135.559540 87.977348,133.285156 90.597618,131.049545 
	C98.656616,124.173622 106.498512,117.043221 115.301331,109.234108 
	C115.301331,125.706757 115.301331,141.103439 115.301346,157.000153 
z"/>
<path fill="#1C1B1B" opacity="1.000000" stroke="none" 
	d="
M611.707275,144.781693 
	C620.340515,144.781693 628.973755,144.781693 638.262512,144.781693 
	C638.262512,146.499130 638.262512,148.266129 638.262512,150.033142 
	C638.262756,166.348251 638.254028,182.663345 638.266296,198.978455 
	C638.275085,210.677948 638.877563,211.257004 650.749817,211.240280 
	C652.238403,211.238174 653.726990,211.239975 655.955261,211.239975 
	C655.955261,214.705933 655.955261,218.120255 655.955261,221.534592 
	C655.955261,224.997879 655.955261,228.461182 655.955261,232.023010 
	C646.613708,232.023010 637.596436,232.734192 628.737366,231.853622 
	C615.965515,230.584091 610.314453,223.538239 610.253967,210.275314 
	C610.156006,188.799911 610.243530,167.323669 610.526062,145.428406 
	C611.133728,145.053711 611.436340,144.977921 611.707275,144.781693 
z"/>
<path fill="#222121" opacity="1.000000" stroke="none" 
	d="
M611.657227,144.375809 
	C611.436340,144.977921 611.133728,145.053711 610.643555,144.968826 
	C605.541931,144.697906 600.596008,144.467209 595.392090,144.224472 
	C595.392090,137.649780 595.392090,131.248016 595.392090,124.337433 
	C600.209961,124.337433 604.950317,124.337433 610.134399,124.337433 
	C610.134399,114.104836 610.134399,104.367348 610.134399,94.338089 
	C619.669373,94.338089 628.751221,94.338089 638.282593,94.338089 
	C638.282593,102.103584 638.429199,109.909416 638.154053,117.700340 
	C638.101501,119.188927 636.628601,120.877998 635.397156,122.033554 
	C627.531738,129.414368 619.550415,136.671860 611.657227,144.375809 
z"/>
<path fill="#212020" opacity="1.000000" stroke="none" 
	d="
M120.227951,63.126369 
	C128.168701,63.126366 135.633484,63.126366 143.862427,63.126366 
	C143.862427,69.839523 143.885941,76.395775 143.820068,82.951118 
	C143.814499,83.506683 143.324432,84.182549 142.869171,84.589882 
	C134.013687,92.513222 125.129898,100.404907 115.598328,108.884521 
	C115.598328,93.257057 115.598328,78.590981 115.598328,63.439301 
	C116.927544,63.339161 118.339760,63.232765 120.227951,63.126369 
z"/>
<path fill="#1F1E1E" opacity="1.000000" stroke="none" 
	d="
M687.012146,108.975098 
	C682.703125,108.979156 678.890320,108.979156 674.458862,108.979156 
	C674.458862,104.721718 674.458862,100.625534 674.458862,96.529343 
	C674.458862,92.417313 674.458862,88.305275 674.458862,83.971375 
	C684.162842,83.971375 693.410095,83.971375 702.900330,83.971375 
	C702.900330,92.118462 702.900330,100.185501 702.900330,108.971031 
	C697.701538,108.971031 692.604980,108.971031 687.012146,108.975098 
z"/>
<path fill="none" opacity="1.000000" stroke="none" 
	d="
M429.796021,144.859039 
	C440.108795,148.512375 443.800507,156.240814 444.683319,166.396149 
	C430.012634,166.396149 415.659760,166.396149 401.302094,166.396149 
	C402.159332,148.787460 414.728973,140.846817 429.796021,144.859039 
z"/>
</svg>